<svg xmlns="http://www.w3.org/2000/svg" width="56" height="56" viewBox="0 0 56 56"><defs><filter id="grain" x="0" y="0" width="56" height="56" filterUnits="userSpaceOnUse" color-interpolation-filters="sRGB"><feTurbulence type="fractalNoise" baseFrequency="0.6" numOctaves="2" seed="74" result="n"/><feColorMatrix in="n" type="matrix" values="1 0 0 0 0 1 0 0 0 0 1 0 0 0 0 0 0 0 0 1" result="g"/><feComponentTransfer in="g" result="m"><feFuncR type="linear" slope="0.45" intercept="0.275"/><feFuncG type="linear" slope="0.45" intercept="0.275"/><feFuncB type="linear" slope="0.45" intercept="0.275"/></feComponentTransfer><feComponentTransfer in="SourceGraphic" result="o"><feFuncA type="linear" slope="255" intercept="0"/></feComponentTransfer><feBlend in="m" in2="o" mode="soft-light" result="b"/><feComposite in="b" in2="SourceGraphic" operator="in"/></filter><filter id="wobble" x="0" y="0" width="56" height="56" filterUnits="userSpaceOnUse" color-interpolation-filters="sRGB"><feTurbulence type="fractalNoise" baseFrequency="0.0625" numOctaves="2" seed="102" result="w"></feTurbulence><feDisplacementMap in="SourceGraphic" in2="w" scale="2.5" xChannelSelector="R" yChannelSelector="G"/></filter></defs><path d="M12 0H44A12 12 0 0 1 56 12V54A2 2 0 0 1 54 56H12A12 12 0 0 1 0 44V12A12 12 0 0 1 12 0Z" fill="#FF9780" filter="url(#grain)"/><g filter="url(#wobble)"><path d="M28 39.9C13.600000000000001 29.7 14.200000000000001 17.1 22.0 17.1C26.2 17.1 28 21.3 28 23.7C28 21.3 29.8 17.1 34.0 17.1C41.8 17.1 42.4 29.7 28 39.9Z" fill="#1B1A19"/></g></svg>
