<svg xmlns="http://www.w3.org/2000/svg" width="24" height="24" viewBox="0 0 24 24"><defs><filter id="grain" x="0" y="0" width="24" height="24" filterUnits="userSpaceOnUse" color-interpolation-filters="sRGB"><feTurbulence type="fractalNoise" baseFrequency="0.6" numOctaves="2" seed="319" result="n"/><feColorMatrix in="n" type="matrix" values="1 0 0 0 0 1 0 0 0 0 1 0 0 0 0 0 0 0 0 1" result="g"/><feComponentTransfer in="g" result="m"><feFuncR type="linear" slope="0.45" intercept="0.275"/><feFuncG type="linear" slope="0.45" intercept="0.275"/><feFuncB type="linear" slope="0.45" intercept="0.275"/></feComponentTransfer><feComponentTransfer in="SourceGraphic" result="o"><feFuncA type="linear" slope="255" intercept="0"/></feComponentTransfer><feBlend in="m" in2="o" mode="soft-light" result="b"/><feComposite in="b" in2="SourceGraphic" operator="in"/></filter><filter id="wobble" x="0" y="0" width="24" height="24" filterUnits="userSpaceOnUse" color-interpolation-filters="sRGB"><feTurbulence type="fractalNoise" baseFrequency="0.1458" numOctaves="2" seed="487" result="w"></feTurbulence><feDisplacementMap in="SourceGraphic" in2="w" scale="1.0714" xChannelSelector="R" yChannelSelector="G"/></filter></defs><path d="M6 0H18A6 6 0 0 1 24 6V23A1 1 0 0 1 23 24H6A6 6 0 0 1 0 18V6A6 6 0 0 1 6 0Z" fill="#9FA7F8" filter="url(#grain)"/><g filter="url(#wobble)"><circle cx="7.5" cy="9.5" r="4" fill="#FFFFFF" stroke="#1B1A19" stroke-width="1.12"/><circle cx="8.6" cy="8.4" r="2" fill="#1B1A19"/><circle cx="16.5" cy="9.5" r="4" fill="#FFFFFF" stroke="#1B1A19" stroke-width="1.12"/><circle cx="17.6" cy="8.4" r="2" fill="#1B1A19"/><ellipse cx="12" cy="17.6" rx="1.8" ry="2.2" fill="none" stroke="#1B1A19" stroke-width="1.19"/></g></svg>
