<svg xmlns="http://www.w3.org/2000/svg" width="24" height="24" viewBox="0 0 24 24"><path d="M6 0H18A6 6 0 0 1 24 6V23A1 1 0 0 1 23 24H6A6 6 0 0 1 0 18V6A6 6 0 0 1 6 0Z" fill="#F8C97B"/><path d="M6 11.5H8.3V19H6Z" fill="none" stroke="#1B1A19" stroke-width="1.7" stroke-linecap="round" stroke-linejoin="round"/><path d="M8.3 12L11.2 6.2Q12 4.8 13.2 5.6Q14.1 6.3 13.5 7.9L12.7 10.5H16.8Q18.5 10.5 18.2 12.5L17.4 17.4Q17.1 19 15.4 19H8.3" fill="none" stroke="#1B1A19" stroke-width="1.7" stroke-linecap="round" stroke-linejoin="round"/></svg>