<svg xmlns="http://www.w3.org/2000/svg" width="24" height="24" viewBox="0 0 24 24"><path d="M6 0H18A6 6 0 0 1 24 6V23A1 1 0 0 1 23 24H6A6 6 0 0 1 0 18V6A6 6 0 0 1 6 0Z" fill="#EFB1F6"/><path d="M5 11Q7.5 7.5 10 11" fill="none" stroke="#1B1A19" stroke-width="2" stroke-linecap="round" stroke-linejoin="round"/><path d="M14 11Q16.5 7.5 19 11" fill="none" stroke="#1B1A19" stroke-width="2" stroke-linecap="round" stroke-linejoin="round"/><path d="M6.5 13.5Q12 18.5 17.5 13.5" fill="none" stroke="#1B1A19" stroke-width="2" stroke-linecap="round" stroke-linejoin="round"/><path d="M11.5 15.8V18A2.3 2.3 0 0 0 16.1 18V15" fill="#FB6B4B" stroke="#1B1A19" stroke-width="1.6" stroke-linejoin="round"/></svg>